<?xml version="1.0" encoding="UTF-8" standalone="no"?>
<svg
   xmlns:dc="http://purl.org/dc/elements/1.1/"
   xmlns:cc="http://creativecommons.org/ns#"
   xmlns:rdf="http://www.w3.org/1999/02/22-rdf-syntax-ns#"
   xmlns:svg="http://www.w3.org/2000/svg"
   xmlns="http://www.w3.org/2000/svg"
   xmlns:xlink="http://www.w3.org/1999/xlink"
   xmlns:sodipodi="http://sodipodi.sourceforge.net/DTD/sodipodi-0.dtd"
   xmlns:inkscape="http://www.inkscape.org/namespaces/inkscape"
   width="150.19453mm"
   height="60.860256mm"
   viewBox="0 0 146.65369 60.860256"
   version="1.1"
   id="svg983"
   inkscape:version="1.0.2-2 (e86c870879, 2021-01-15)"
   sodipodi:docname="CRM_Logo.svg">
  <defs
     id="defs977">
    <radialGradient
       inkscape:collect="always"
       xlink:href="#linearGradient2941"
       id="radialGradient2983"
       cx="738.71735"
       cy="466.56564"
       fx="738.71735"
       fy="466.56564"
       r="234.09863"
       gradientTransform="matrix(-0.79832387,-0.01669315,0.00175183,-0.06943546,544.04375,249.48354)"
       gradientUnits="userSpaceOnUse" />
    <linearGradient
       inkscape:collect="always"
       id="linearGradient2941">
      <stop
         style="stop-color:#000000;stop-opacity:1;"
         offset="0"
         id="stop2937" />
      <stop
         style="stop-color:#000000;stop-opacity:0.49803922;"
         offset="0.5"
         id="stop2945" />
      <stop
         style="stop-color:#000000;stop-opacity:0.24705882;"
         offset="0.75"
         id="stop2947" />
      <stop
         style="stop-color:#000000;stop-opacity:0.12156863;"
         offset="0.875"
         id="stop2949" />
      <stop
         style="stop-color:#000000;stop-opacity:0.05882353;"
         offset="0.98437518"
         id="stop2951" />
      <stop
         style="stop-color:#000000;stop-opacity:0.02745098;"
         offset="0.98437518"
         id="stop2953" />
      <stop
         style="stop-color:#000000;stop-opacity:0.01176471;"
         offset="0.984375"
         id="stop2955" />
      <stop
         style="stop-color:#000000;stop-opacity:0.00392157;"
         offset="0.9921875"
         id="stop2957" />
      <stop
         style="stop-color:#000000;stop-opacity:0;"
         offset="0.99609375"
         id="stop2959" />
      <stop
         style="stop-color:#000000;stop-opacity:0;"
         offset="0.99804688"
         id="stop2961" />
      <stop
         style="stop-color:#000000;stop-opacity:0;"
         offset="0.99902344"
         id="stop2963" />
      <stop
         style="stop-color:#000000;stop-opacity:0;"
         offset="0.99951172"
         id="stop2965" />
      <stop
         style="stop-color:#000000;stop-opacity:0;"
         offset="0.99975586"
         id="stop2967" />
      <stop
         style="stop-color:#000000;stop-opacity:0;"
         offset="0.99987793"
         id="stop2969" />
      <stop
         style="stop-color:#000000;stop-opacity:0;"
         offset="0.99993896"
         id="stop2971" />
      <stop
         style="stop-color:#000000;stop-opacity:0;"
         offset="0.99996948"
         id="stop2973" />
      <stop
         style="stop-color:#000000;stop-opacity:0;"
         offset="0.99998474"
         id="stop2975" />
      <stop
         style="stop-color:#000000;stop-opacity:0;"
         offset="0.99999237"
         id="stop2977" />
      <stop
         style="stop-color:#000000;stop-opacity:0;"
         offset="0.99999619"
         id="stop2979" />
      <stop
         style="stop-color:#000000;stop-opacity:0;"
         offset="1"
         id="stop2939" />
    </linearGradient>
    <radialGradient
       inkscape:collect="always"
       xlink:href="#linearGradient3015"
       id="radialGradient925"
       gradientUnits="userSpaceOnUse"
       gradientTransform="matrix(-0.39470079,-0.37459278,3.6732675,-3.8704503,-326.53475,593.8628)"
       cx="121.1792"
       cy="95.607185"
       fx="121.1792"
       fy="95.607185"
       r="12.038542" />
    <linearGradient
       inkscape:collect="always"
       id="linearGradient3015">
      <stop
         style="stop-color:#000000;stop-opacity:1;"
         offset="0"
         id="stop3011" />
      <stop
         style="stop-color:#15d6c3;stop-opacity:1"
         offset="1"
         id="stop3013" />
    </linearGradient>
    <radialGradient
       inkscape:collect="always"
       xlink:href="#linearGradient3015"
       id="radialGradient927"
       gradientUnits="userSpaceOnUse"
       gradientTransform="matrix(1,0,0,0.99122212,0,1.5975649)"
       cx="-26.216246"
       cy="181.99895"
       fx="-26.216246"
       fy="181.99895"
       r="15.071042" />
  </defs>
  <sodipodi:namedview
     id="base"
     pagecolor="#ffffff"
     bordercolor="#666666"
     borderopacity="1.0"
     inkscape:pageopacity="0.0"
     inkscape:pageshadow="2"
     inkscape:zoom="0.35"
     inkscape:cx="108.89383"
     inkscape:cy="256.26367"
     inkscape:document-units="mm"
     inkscape:current-layer="layer1"
     inkscape:document-rotation="0"
     showgrid="false"
     fit-margin-top="0"
     fit-margin-left="0"
     fit-margin-right="0"
     fit-margin-bottom="0"
     viewbox-width="231.92786"
     inkscape:window-width="1346"
     inkscape:window-height="728"
     inkscape:window-x="4"
     inkscape:window-y="0"
     inkscape:window-maximized="0" />
  <metadata
     id="metadata980">
    <rdf:RDF>
      <cc:Work
         rdf:about="">
        <dc:format>image/svg+xml</dc:format>
        <dc:type
           rdf:resource="http://purl.org/dc/dcmitype/StillImage" />
        <dc:title></dc:title>
      </cc:Work>
    </rdf:RDF>
  </metadata>
  <g
     inkscape:label="Layer 1"
     inkscape:groupmode="layer"
     id="layer1"
     transform="translate(-77.021842,-80.363571)">
    <text
       xml:space="preserve"
       style="font-style:normal;font-weight:normal;font-size:10.5833px;line-height:1.25;font-family:sans-serif;fill:#000000;fill-opacity:1;stroke:none;stroke-width:0.264583"
       x="269.91541"
       y="80.363571"
       id="text839"><tspan
         sodipodi:role="line"
         id="tspan837"
         x="269.91541"
         y="80.363571"
         style="stroke-width:0.264583"> </tspan></text>
    <g
       id="g923"
       transform="translate(178.88388,-79.880454)">
      <path
         id="path847"
         style="font-style:normal;font-variant:normal;font-weight:normal;font-stretch:normal;font-size:15.2899px;line-height:2.65;font-family:Georgia;-inkscape-font-specification:'Georgia, Normal';font-variant-ligatures:normal;font-variant-caps:normal;font-variant-numeric:normal;font-variant-east-asian:normal;letter-spacing:1.29645px;word-spacing:1.31074px;opacity:1;mix-blend-mode:soft-light;fill:url(#radialGradient2983);fill-opacity:1;fill-rule:evenodd;stroke:#000000;stroke-width:0.4;stroke-miterlimit:4;stroke-dasharray:none;stroke-opacity:1"
         d="m 37.610847,198.88436 -2.8524,0.22142 v 0.59712 c 0.25952,0.0257 0.50063,0.0672 0.72238,0.12478 0.22648,0.0512 0.40535,0.13817 0.53745,0.26011 0.11793,0.11547 0.21041,0.28531 0.2765,0.50988 0.066,0.21826 0.0988,0.46233 0.0988,0.73182 v 3.30083 c -0.22647,-0.17333 -0.4978,-0.31408 -0.81394,-0.42316 -0.3114,-0.11548 -0.62962,-0.17333 -0.95519,-0.17333 -0.43408,0 -0.86144,0.12841 -1.28136,0.385 -0.41521,0.25666 -0.76672,0.60021 -1.05453,1.03011 -0.3067,0.46199 -0.54721,1.00088 -0.72178,1.61688 -0.17458,0.616 -0.26155,1.26729 -0.26155,1.95388 0,0.75075 0.0801,1.43727 0.2406,2.05968 0.16515,0.6224 0.38654,1.15503 0.66493,1.59778 0.27365,0.43631 0.59434,0.77646 0.96235,1.02031 0.37275,0.23739 0.75756,0.35609 1.1539,0.35609 0.38218,0 0.7528,-0.11866 1.11139,-0.35609 0.36331,-0.23742 0.66735,-0.54234 0.9127,-0.91452 l 0.0568,0.0182 v 0.88558 l 0.10597,0.13477 2.43465,-0.21167 v -0.62549 c -0.14154,-0.007 -0.29695,-0.0204 -0.46682,-0.0388 -0.16985,-0.0182 -0.29995,-0.0676 -0.38961,-0.14452 -0.12264,-0.10913 -0.21699,-0.24028 -0.28309,-0.39428 -0.0613,-0.1604 -0.0916,-0.35289 -0.0916,-0.5775 v -12.80146 z m -74.73081,5.4e-4 -2.62617,0.22075 v 0.61619 c 0.13682,0.0136 0.31875,0.0515 0.54522,0.11571 0.22648,0.0642 0.38189,0.13453 0.46682,0.21166 0.11792,0.11549 0.21228,0.27618 0.28309,0.48152 0.0755,0.19896 0.11373,0.41356 0.11373,0.64456 v 10.99148 c 0,0.231 -0.0333,0.42064 -0.0994,0.56824 -0.0661,0.14112 -0.16535,0.24053 -0.29745,0.29829 -0.0802,0.0319 -0.18135,0.0576 -0.30403,0.0769 -0.12267,0.0136 -0.23861,0.0259 -0.34712,0.0388 v 0.6353 h 3.4048 l -6.1e-4,-0.6353 c -0.12739,-0.0136 -0.24271,-0.0356 -0.34652,-0.0676 -0.0991,-0.032 -0.20084,-0.0798 -0.30463,-0.14406 -0.13678,-0.0769 -0.23547,-0.18649 -0.29685,-0.32774 -0.0613,-0.14769 -0.0922,-0.33329 -0.0922,-0.55786 v -13.0228 z m 58.94628,0 -2.62616,0.22075 v 0.61619 c 0.13684,0.0136 0.31875,0.0515 0.54523,0.11571 0.22647,0.0642 0.38188,0.13453 0.46682,0.21166 0.11792,0.11549 0.21228,0.27618 0.28309,0.48152 0.0755,0.19896 0.11373,0.41356 0.11373,0.64456 v 10.99148 c 0,0.231 -0.0334,0.42064 -0.0994,0.56824 -0.0661,0.14112 -0.16474,0.24053 -0.29686,0.29829 -0.0802,0.0319 -0.18195,0.0576 -0.30462,0.0769 -0.12267,0.0136 -0.23802,0.0259 -0.34653,0.0388 v 0.6353 h 3.4042 v -0.63548 c -0.1274,-0.0136 -0.24332,-0.0356 -0.34712,-0.0676 -0.0991,-0.032 -0.20023,-0.0798 -0.30403,-0.14405 -0.13686,-0.0769 -0.23615,-0.18649 -0.29745,-0.32774 -0.0614,-0.14769 -0.0922,-0.3333 -0.0922,-0.55786 v -13.02281 z m -38.32298,0.31739 c -0.24063,0 -0.45091,0.13114 -0.6302,0.39425 -0.17458,0.26308 -0.26155,0.5714 -0.26155,0.92432 0,0.33368 0.087,0.63178 0.26155,0.89487 0.17929,0.25668 0.38957,0.38499 0.6302,0.38499 0.2595,0 0.47658,-0.13452 0.65116,-0.40407 0.17929,-0.27592 0.26872,-0.59674 0.26872,-0.96251 0,-0.32723 -0.0875,-0.61283 -0.26214,-0.85668 -0.16986,-0.25026 -0.38879,-0.37517 -0.65774,-0.37517 z m -37.682004,0.61565 c -0.40577,0 -0.795503,0.0964 -1.16825,0.28901 -0.372746,0.18604 -0.695893,0.44617 -0.969551,0.77983 -0.287816,0.35292 -0.509215,0.7538 -0.664919,1.20298 -0.155713,0.44916 -0.234009,0.93352 -0.234009,1.45326 0,0.90476 0.156013,1.63953 0.467419,2.20421 0.316123,0.55823 0.757064,1.01025 1.323254,1.35675 0.287816,0.17968 0.630067,0.37216 1.026405,0.5775 0.396337,0.19896 0.747851,0.3823 1.054532,0.54913 0.448235,0.24382 0.78557,0.6027 1.012043,1.07755 0.226486,0.46842 0.339944,0.97547 0.339944,1.52089 0,0.37216 -0.03817,0.70266 -0.113708,0.9914 -0.07074,0.28234 -0.181172,0.52934 -0.332157,0.7411 -0.150977,0.21166 -0.349545,0.37528 -0.594896,0.49079 -0.240634,0.11547 -0.523703,0.17332 -0.849259,0.17332 -0.434076,0 -0.815816,-0.11252 -1.146107,-0.33701 -0.325555,-0.22461 -0.611083,-0.52612 -0.856433,-0.90469 -0.259499,-0.40424 -0.469778,-0.83749 -0.630208,-1.29949 -0.155703,-0.46842 -0.292601,-0.9914 -0.410565,-1.56891 h -0.573344 l 0.09932,4.67778 h 0.56617 l 0.304022,-0.70239 c 0.325565,0.2695 0.71284,0.50061 1.161076,0.69311 0.448235,0.18603 0.89656,0.27867 1.344795,0.27867 0.97197,0 1.785994,-0.39125 2.441828,-1.17408 0.655846,-0.78282 0.98332,-1.77712 0.98332,-2.98346 0,-0.50692 -0.05186,-0.94981 -0.155614,-1.32839 -0.09912,-0.385 -0.254493,-0.73819 -0.46682,-1.05901 -0.193443,-0.28235 -0.422236,-0.52935 -0.686458,-0.74109 -0.259509,-0.21168 -0.530846,-0.40086 -0.813945,-0.56768 -0.311407,-0.18603 -0.635143,-0.35929 -0.970151,-0.51969 -0.330271,-0.16675 -0.667607,-0.36275 -1.012036,-0.58732 -0.386906,-0.25024 -0.681686,-0.56768 -0.884571,-0.95268 -0.202885,-0.3914 -0.304032,-0.88257 -0.304032,-1.47291 0,-0.56466 0.157881,-1.04224 0.474004,-1.43364 0.316133,-0.39142 0.698462,-0.58732 1.146707,-0.58732 0.424644,0 0.782943,0.11253 1.075485,0.33702 0.292522,0.21824 0.54043,0.51343 0.743315,0.88558 0.207608,0.385 0.375342,0.81486 0.502728,1.28969 0.13211,0.47485 0.249904,0.97171 0.353699,1.49147 h 0.573354 l -0.05685,-4.53325 h -0.566174 l -0.290261,0.65439 c -0.301964,-0.25666 -0.636829,-0.48099 -1.00486,-0.6735 -0.363304,-0.19261 -0.775878,-0.289 -1.238272,-0.289 z m -41.220273,0.009 c -0.665275,0 -1.290595,0.17311 -1.875661,0.51969 -0.585068,0.3465 -1.091991,0.83768 -1.521355,1.47291 -0.434083,0.64166 -0.773876,1.40825 -1.019225,2.30018 -0.245349,0.88547 -0.368069,1.87354 -0.368069,2.96435 0,1.09084 0.12458,2.07264 0.37465,2.94528 0.250069,0.86623 0.585535,1.60102 1.005461,2.20418 0.424645,0.60315 0.910597,1.06537 1.457916,1.3862 0.552038,0.32084 1.127418,0.48098 1.726639,0.48098 0.924782,0 1.72216,-0.28848 2.392158,-0.86596 0.669994,-0.58391 1.207749,-1.5532 1.613521,-2.90711 l -0.530857,-0.34628 c -0.113244,0.4235 -0.259399,0.81473 -0.438692,1.17408 -0.179296,0.35932 -0.386513,0.68016 -0.622427,0.9625 -0.235915,0.2695 -0.514647,0.48754 -0.83549,0.65435 -0.320843,0.1604 -0.672357,0.24106 -1.054536,0.24106 -0.509575,0 -0.972088,-0.1545 -1.387295,-0.46243 -0.410491,-0.308 -0.766331,-0.73445 -1.068302,-1.27987 -0.30197,-0.55183 -0.535691,-1.19009 -0.70083,-1.91517 -0.16042,-0.7315 -0.240593,-1.53384 -0.240593,-2.4065 0,-0.98816 0.07772,-1.88307 0.233411,-2.68517 0.155705,-0.80206 0.370312,-1.46304 0.643975,-1.98278 0.287814,-0.539 0.627607,-0.94669 1.019226,-1.2226 0.396333,-0.27593 0.823688,-0.41391 1.281363,-0.41391 0.401052,0 0.756892,0.12546 1.068301,0.37572 0.311405,0.24384 0.580284,0.58397 0.806761,1.02031 0.202885,0.385 0.379874,0.85632 0.530859,1.41456 0.150981,0.55184 0.264445,1.06516 0.339941,1.53999 h 0.580534 l -0.06405,-4.87027 h -0.566167 l -0.290268,0.65439 c -0.363308,-0.30158 -0.74505,-0.53555 -1.146105,-0.70237 -0.401055,-0.16675 -0.849383,-0.25031 -1.344803,-0.25031 z m 5.892713,0.29829 v 0.68329 c 0.132114,0.0136 0.292454,0.0452 0.481188,0.0964 0.18873,0.0449 0.342278,0.096 0.460236,0.15382 0.174574,0.0898 0.285577,0.22165 0.33276,0.39482 0.04718,0.17332 0.07062,0.372 0.07062,0.59658 v 9.8752 c 0,0.25025 -0.03269,0.45579 -0.09874,0.61621 -0.06134,0.16039 -0.163082,0.28191 -0.30463,0.36537 -0.08493,0.0512 -0.236016,0.0933 -0.453057,0.12546 -0.212322,0.0322 -0.375127,0.0543 -0.488367,0.0671 v 0.68383 h 4.246874 v -0.68383 c -0.146266,-0.007 -0.325718,-0.0286 -0.538041,-0.0671 -0.212323,-0.0383 -0.360945,-0.0806 -0.445875,-0.12546 -0.169857,-0.0898 -0.280856,-0.21824 -0.332759,-0.38499 -0.0519,-0.17333 -0.07781,-0.372 -0.07781,-0.59659 v -4.33099 h 1.026407 c 0.566192,0.98818 1.089768,1.94725 1.57103,2.87767 0.485984,0.93039 1.028666,2.03428 1.627888,3.31119 h 2.703372 v -0.68383 c -0.122677,-0.007 -0.276224,-0.0319 -0.460239,-0.0769 -0.184013,-0.0449 -0.336964,-0.10912 -0.459639,-0.19239 -0.165139,-0.11547 -0.332871,-0.26312 -0.502728,-0.44278 -0.165142,-0.18603 -0.351385,-0.47116 -0.55899,-0.85616 -0.476544,-0.87266 -0.879861,-1.61422 -1.210142,-2.22381 -0.325562,-0.60957 -0.736271,-1.36027 -1.231688,-2.25218 0.358588,-0.14112 0.68666,-0.31095 0.983915,-0.50987 0.297248,-0.20532 0.551946,-0.4461 0.764269,-0.72202 0.231195,-0.29516 0.405721,-0.64495 0.523677,-1.04918 0.117958,-0.40424 0.177153,-0.8693 0.177153,-1.39548 0,-0.58392 -0.08756,-1.08133 -0.262138,-1.49199 -0.174577,-0.41708 -0.4077,-0.75383 -0.700232,-1.01049 -0.301971,-0.26309 -0.639898,-0.45219 -1.012644,-0.56767 -0.372742,-0.12183 -0.771133,-0.18331 -1.195777,-0.18331 z m 11.109139,0 v 0.68329 c 0.207603,0.0136 0.417885,0.061 0.630206,0.14451 0.212323,0.0835 0.391175,0.21167 0.537445,0.385 0.132115,0.1604 0.233857,0.36882 0.30463,0.62548 0.07077,0.25666 0.105935,0.58714 0.105935,0.9914 v 6.98773 c 0,0.87266 -0.03023,1.495 -0.09157,1.86718 -0.06134,0.37216 -0.174801,0.64815 -0.339939,0.82781 -0.127394,0.14111 -0.30931,0.24735 -0.545224,0.31791 -0.231196,0.0705 -0.452598,0.1182 -0.66492,0.14407 v 0.68329 h 4.055354 v -0.68329 c -0.09908,-0.007 -0.311228,-0.0705 -0.63679,-0.1924 -0.325562,-0.12182 -0.540771,-0.25023 -0.644574,-0.38499 -0.150978,-0.17969 -0.263843,-0.47441 -0.339341,-0.88507 -0.07077,-0.41066 -0.106538,-1.01086 -0.106538,-1.8001 v -8.15254 h 0.09217 l 3.262954,11.87763 h 0.353707 l 3.425146,-11.63661 h 0.106538 v 9.93248 c 0,0.23742 -0.03576,0.43673 -0.106538,0.59713 -0.06605,0.15404 -0.172128,0.29198 -0.318395,0.41389 -0.09436,0.0705 -0.268889,0.12501 -0.523675,0.16358 -0.250069,0.0386 -0.455423,0.0608 -0.615846,0.0671 v 0.68383 h 4.437789 v -0.68383 c -0.127394,-0.007 -0.299452,-0.035 -0.516494,-0.0862 -0.217041,-0.0576 -0.368127,-0.11888 -0.453057,-0.18331 -0.160422,-0.11548 -0.268958,-0.2501 -0.325576,-0.4041 -0.05662,-0.15405 -0.08498,-0.3431 -0.08498,-0.56768 v -9.8463 c 0,-0.21167 0.02838,-0.40764 0.08498,-0.5873 0.05662,-0.17968 0.165157,-0.308 0.325576,-0.385 0.09436,-0.0449 0.242987,-0.0933 0.445874,-0.14452 0.207604,-0.0515 0.377201,-0.0803 0.509315,-0.0867 v -0.68328 h -3.276723 c -0.0048,0.11547 -0.03988,0.34661 -0.105936,0.69311 -0.06135,0.34007 -0.13718,0.66716 -0.226829,0.98157 l -2.455595,8.56644 -2.873342,-10.24112 z m -8.256742,0.77982 h 1.202961 c 0.636967,0 1.130307,0.24361 1.479461,0.73127 0.349154,0.48124 0.523678,1.13596 0.523678,1.9637 0,0.97532 -0.217074,1.74872 -0.651154,2.3198 -0.434083,0.56466 -0.976767,0.84688 -1.627888,0.84688 h -0.927058 z m 63.216507,0.47169 v 2.95455 h -1.28795 v 0.92432 h 1.25981 v 6.42935 c 0,0.73147 0.11779,1.2993 0.35371,1.70357 0.24063,0.39781 0.65322,0.59657 1.23827,0.59657 0.39635,0 0.73181,-0.0608 1.00547,-0.18263 0.27366,-0.11547 0.5635,-0.25974 0.87019,-0.43298 v -0.70292 c -0.0944,0.0449 -0.25716,0.0835 -0.48836,0.11571 -0.22647,0.0257 -0.39853,0.0388 -0.5165,0.0388 -0.25479,0 -0.45769,-0.0483 -0.60866,-0.14452 -0.15097,-0.0962 -0.26443,-0.23762 -0.33994,-0.4237 -0.0802,-0.19897 -0.13205,-0.43003 -0.15561,-0.69311 -0.0189,-0.26951 -0.0282,-0.60282 -0.0282,-1.00066 v -5.30326 h 1.98877 v -0.92431 h -2.00314 v -2.95456 z m 49.38006,0 v 2.95455 h -1.28796 v 0.92432 h 1.25983 v 6.42935 c 0,0.73147 0.11779,1.2993 0.3537,1.70357 0.24063,0.39781 0.65321,0.59657 1.23827,0.59657 0.39634,0 0.73181,-0.0608 1.00545,-0.18263 0.27367,-0.11547 0.56353,-0.25974 0.87021,-0.43298 v -0.70292 c -0.0944,0.0449 -0.25717,0.0835 -0.48837,0.11571 -0.22647,0.0257 -0.39852,0.0388 -0.5165,0.0388 -0.25479,0 -0.45768,-0.0483 -0.60866,-0.14452 -0.15098,-0.0962 -0.26383,-0.23762 -0.33933,-0.4237 -0.0802,-0.19897 -0.13266,-0.43003 -0.15622,-0.69311 -0.0189,-0.26951 -0.0282,-0.60282 -0.0282,-1.00066 v -5.30326 h 1.98876 v -0.92431 h -2.00314 v -2.95456 z m -15.47511,2.63718 -0.1628,0.50059 c -0.17929,-0.13476 -0.4124301,-0.25058 -0.7002201,-0.34682 -0.28311,-0.0962 -0.56184,-0.14451 -0.8355,-0.14451 -0.71245,0 -1.28105,0.26973 -1.70568,0.80872 -0.42465,0.539 -0.6368,1.19657 -0.6368,1.97296 0,0.44273 0.0661,0.82773 0.1981,1.155 0.13211,0.32724 0.30172,0.6032 0.50931,0.82781 0.19346,0.21166 0.42471,0.39796 0.69364,0.55839 0.27368,0.15404 0.52158,0.27607 0.74333,0.36592 0.27838,0.11547 0.53062,0.23417 0.75709,0.3561 0.22648,0.11547 0.41764,0.24667 0.57335,0.39424 0.1509601,0.1477 0.2644301,0.32078 0.3399401,0.5197 0.0802,0.19238 0.12029,0.42361 0.12029,0.69311 0,0.51974 -0.12271,0.92064 -0.3680701,1.20298 -0.24534,0.27592 -0.59438,0.4139 -1.04734,0.4139 -0.32085,0 -0.6113,-0.096 -0.87081,-0.28848 -0.25479,-0.19262 -0.47371,-0.42985 -0.65773,-0.7122 -0.17457,-0.2695 -0.32319,-0.571 -0.44588,-0.90468 -0.12267,-0.33366 -0.20342,-0.62553 -0.24119,-0.8758 h -0.48837 l 0.0712,3.30138 h 0.53085 l 0.14124,-0.62603 c 0.14628,0.16675 0.38924,0.3497 0.72897,0.5486 0.34443,0.19896 0.71938,0.29829 1.12515,0.29829 0.7691,0 1.3944001,-0.27882 1.8756601,-0.83707 0.48599,-0.55823 0.72896,-1.27711 0.72896,-2.15619 0,-0.43634 -0.0518,-0.80487 -0.1556,-1.10645 -0.10378,-0.30158 -0.25244,-0.56791 -0.44588,-0.79891 -0.17929,-0.21824 -0.40808,-0.41746 -0.68646,-0.59712 -0.2736601,-0.17968 -0.5659801,-0.33696 -0.8773801,-0.4717 -0.31613,-0.14111 -0.58314,-0.2661 -0.80019,-0.37518 -0.2123,-0.11547 -0.38871,-0.23758 -0.53025,-0.36592 -0.14625,-0.13475 -0.25725,-0.29828 -0.33276,-0.49079 -0.0708,-0.19238 -0.10655,-0.4327 -0.10655,-0.72144 0,-0.37216 0.11095,-0.69014 0.33276,-0.95323 0.22176,-0.2631 0.52638,-0.39428 0.91329,-0.39428 0.47182,0 0.87022,0.21463 1.19577,0.64458 0.3302801,0.42349 0.5448801,0.97544 0.6439701,1.6556 h 0.48838 l -0.10598,-3.05107 z m -55.327847,0.009 c -1.028578,0 -1.86171,0.47186 -2.498682,1.4151 -0.632245,0.94324 -0.948008,2.15615 -0.948008,3.63839 0,0.76999 0.08943,1.46617 0.268721,2.08857 0.18402,0.616 0.42946,1.13898 0.736141,1.5689 0.311407,0.43631 0.667247,0.76966 1.068301,1.00066 0.401053,0.22459 0.82348,0.33701 1.266997,0.33701 0.53317,0 1.0148,-0.125 1.44416,-0.37519 0.42936,-0.25025 0.806767,-0.63239 1.132337,-1.14573 0.28781,-0.44915 0.5092,-0.99428 0.66492,-1.63596 0.1557,-0.64807 0.234,-1.30563 0.234,-1.97295 0,-1.48865 -0.31882,-2.67941 -0.95578,-3.5713 -0.632247,-0.89834 -1.436407,-1.3475 -2.413107,-1.3475 z m 35.6932369,0 c -1.0285799,0 -1.8616999,0.47186 -2.4986899,1.4151 -0.63224,0.94324 -0.94799,2.15615 -0.94799,3.63839 0,0.76999 0.0894,1.46617 0.26872,2.08857 0.18401,0.616 0.42944,1.13898 0.73613,1.5689 0.31139,0.43631 0.66785,0.76966 1.06891,1.00066 0.40105,0.22459 0.8228799,0.33701 1.2663999,0.33701 0.53316,0 1.01478,-0.125 1.44414,-0.37519 0.42936,-0.25025 0.80679,-0.63239 1.13234,-1.14573 0.28783,-0.44915 0.50922,-0.99428 0.66492,-1.63596 0.15571,-0.64807 0.23401,-1.30563 0.23401,-1.97295 0,-1.48865 -0.31881,-2.67941 -0.95578,-3.5713 -0.63226,-0.89834 -1.43642,-1.3475 -2.41311,-1.3475 z m 10.33051,0.0113 c -0.30197005,0 -0.57331005,0.051 -0.81395005,0.15382 -0.24062,0.10255 -0.44845,0.231 -0.62302,0.385 -0.15098,0.13476 -0.31132,0.31133 -0.48119,0.52949 -0.16985,0.21168 -0.31107995,0.39462 -0.42431995,0.5486 h -0.0354 v -1.33822 l -0.0994,-0.13477 -2.32153,0.21214 v 0.6255 c 0.14154,0.0136 0.27352,0.0383 0.3962,0.0769 0.12266,0.0319 0.22933,0.0866 0.31899,0.16358 0.12272,0.11548 0.21707,0.26653 0.28309,0.45261 0.0707,0.17968 0.10596,0.37842 0.10596,0.59657 v 5.86165 c 0,0.23102 -0.0333,0.42012 -0.0993,0.5677 -0.0614,0.14112 -0.15755,0.24053 -0.28966,0.29829 -0.0849,0.0386 -0.18668,0.064 -0.30462,0.0769 -0.11327,0.0136 -0.22424,0.0259 -0.33277,0.0386 v 0.63531 h 3.41856995 v -0.63531 c -0.12267,-0.0136 -0.24293,-0.0354 -0.3609,-0.0676 -0.11327,-0.032 -0.2193,-0.0803 -0.31838,-0.14452 -0.13207,-0.0769 -0.23135995,-0.18603 -0.29745995,-0.32719 -0.0662,-0.14111 -0.0994,-0.32061 -0.0994,-0.53877 v -5.45762 c 0.0425,-0.10255 0.10909,-0.23726 0.1987,-0.40408 0.0944,-0.17333 0.21893995,-0.33341 0.37465995,-0.48098 0.1604,-0.15405 0.34479,-0.28232 0.5524,-0.38498 0.2076,-0.10913 0.43639,-0.16357 0.68646,-0.16357 0.335,0 0.61806005,0.18285 0.84926005,0.54859 0.2359,0.36575 0.35371,0.88533 0.35371,1.55907 v 4.87953 c 0,0.23102 -0.0328,0.42064 -0.0988,0.56822 -0.0614,0.14111 -0.15815,0.24055 -0.29028,0.29831 -0.0849,0.0386 -0.19345,0.064 -0.32557,0.0769 -0.12739005,0.0136 -0.24519005,0.0259 -0.35369005,0.0388 v 0.6353 H 4.1498469 v -0.6353 c -0.14627,-0.0136 -0.2616,-0.0322 -0.34653,-0.0578 -0.0802,-0.0257 -0.17704,-0.0703 -0.29027,-0.13477 -0.13685,-0.0769 -0.23367,-0.18263 -0.29026,-0.31737 -0.0566,-0.14111 -0.085,-0.32402 -0.085,-0.54859 v -4.93788 c 0,-0.94324 -0.16282,-1.69733 -0.48836,-2.26198 -0.32085,-0.57108 -0.81605,-0.85617 -1.48605,-0.85617 z m -32.9713099,0.14407 -2.32811,0.23122 v 0.62548 c 0.14154,0.0136 0.27598,0.0383 0.40337,0.0769 0.12739,0.032 0.23347,0.0867 0.31839,0.16358 0.12264,0.11547 0.21452,0.25347 0.2759,0.4139 0.0661,0.15404 0.0994,0.3465 0.0994,0.5775 v 4.54305 c 0,1.04591 0.16034,1.84487 0.48118,2.39669 0.32557,0.54543 0.79733,0.81797 1.41543,0.81797 0.36331,0 0.64391,-0.0449 0.84208,-0.13476 0.19816,-0.0898 0.40352,-0.22165 0.61583,-0.3948 0.18403,-0.14769 0.34682,-0.31112 0.48838,-0.49078 0.14154,-0.18604 0.2692,-0.35927 0.38243,-0.5197 h 0.0425 v 1.20298 l 0.10597,0.13476 2.27187,-0.21166 v -0.62548 c -0.14156,-0.007 -0.27107,-0.0204 -0.38903,-0.0388 -0.11795,-0.0257 -0.21971,-0.074 -0.30463,-0.14452 -0.11791,-0.10912 -0.20981,-0.24028 -0.27589,-0.39428 -0.0662,-0.15404 -0.0993,-0.34021 -0.0993,-0.5584 v -7.53633 l -0.10598,-0.13476 -2.534,0.23123 v 0.62548 c 0.20762,0.0136 0.39444,0.0288 0.55958,0.0481 0.16986,0.0137 0.29691,0.0576 0.38185,0.13476 0.1179,0.11548 0.20981,0.25689 0.2759,0.42373 0.0662,0.16039 0.0993,0.34665 0.0993,0.55839 v 5.38014 c -0.0519,0.12841 -0.12714,0.26916 -0.22623,0.42316 -0.0944,0.1477 -0.20538,0.28899 -0.33276,0.42373 -0.13682,0.14769 -0.30702,0.27589 -0.50991,0.385 -0.20288,0.10912 -0.43414,0.16357 -0.69365,0.16357 -0.31613,0 -0.58746,-0.1731 -0.81394,-0.5197 -0.22648,-0.34649 -0.33935,-0.86324 -0.33935,-1.54979 v -6.59294 z m 15.9904,0 -2.46277,0.21166 v 0.62603 c 0.14154,0.0136 0.29695,0.0481 0.46682,0.10572 0.16985,0.0512 0.29936,0.11547 0.38902,0.19238 0.12265,0.11549 0.21759,0.25973 0.28368,0.43299 0.0707,0.16675 0.10596,0.35305 0.10596,0.55839 v 5.86111 c 0,0.23102 -0.0333,0.42064 -0.0993,0.56824 -0.0614,0.14112 -0.15814,0.24053 -0.29026,0.29829 -0.0849,0.0386 -0.18608,0.064 -0.30403,0.0769 -0.11327,0.0136 -0.22423,0.0259 -0.33276,0.0386 v 0.63531 h 3.37606 v -0.63531 c -0.12269,-0.0136 -0.23368,-0.0354 -0.33277,-0.0676 -0.099,-0.0386 -0.20023,-0.0862 -0.30403,-0.14406 -0.13687,-0.0705 -0.23861,-0.18014 -0.30462,-0.32774 -0.0613,-0.14746 -0.0916,-0.33327 -0.0916,-0.55785 v -7.73866 z m -29.057187,0.57749 c 0.35386,0 0.65358,0.12161 0.89893,0.36537 0.24535,0.2374 0.44331,0.55539 0.59429,0.95322 0.14155,0.37217 0.24762,0.82759 0.31839,1.36658 0.0707,0.53258 0.10654,1.03964 0.10654,1.5209 0,1.36673 -0.17206,2.43824 -0.5165,3.21466 -0.34443,0.77642 -0.81187,1.16479 -1.40166,1.16479 -0.358591,0 -0.660755,-0.11593 -0.906106,-0.34681 -0.240634,-0.23742 -0.441061,-0.5611 -0.60148,-0.97176 -0.16043,-0.41065 -0.278224,-0.87628 -0.353713,-1.39602 -0.07074,-0.52616 -0.105933,-1.09688 -0.105933,-1.71285 0,-0.46841 0.03028,-0.95332 0.09153,-1.45383 0.06135,-0.5005 0.167414,-0.94628 0.318391,-1.33767 0.160429,-0.4235 0.36824,-0.75738 0.623033,-1.00121 0.259499,-0.24383 0.570936,-0.36537 0.934238,-0.36537 z m 35.6932269,0 c 0.35388,0 0.65357,0.12161 0.89893,0.36537 0.24535,0.2374 0.44331,0.55539 0.5943,0.95322 0.14151,0.37217 0.24759,0.82759 0.3184,1.36658 0.0707,0.53258 0.10654,1.03964 0.10654,1.5209 0,1.36673 -0.17265,2.43824 -0.51708,3.21466 -0.34444,0.77642 -0.81127,1.16479 -1.40107,1.16479 -0.35859,0 -0.66076,-0.11593 -0.9061099,-0.34681 -0.24063,-0.23742 -0.44105,-0.5611 -0.60148,-0.97176 -0.1604,-0.41065 -0.27818,-0.87628 -0.35371,-1.39602 -0.0707,-0.52616 -0.10655,-1.09688 -0.10655,-1.71285 0,-0.46841 0.0308,-0.95332 0.0922,-1.45383 0.0613,-0.5005 0.16741,-0.94628 0.3184,-1.33767 0.16041,-0.4235 0.36823,-0.75738 0.62302,-1.00121 0.2594999,-0.24383 0.5709299,-0.36537 0.9342399,-0.36537 z m 43.9469901,0.009 c 0.24535,0 0.45995,0.0545 0.64396,0.16357 0.18401,0.10278 0.34495,0.23386 0.48179,0.39427 0.1274,0.1604 0.23346,0.337 0.31839,0.52951 0.0849,0.19238 0.14598,0.37195 0.18373,0.53878 v 5.55354 c -0.16985,0.2695 -0.37953,0.51652 -0.6296,0.74109 -0.24536,0.22461 -0.55677,0.33702 -0.93424,0.33702 -0.35387,0 -0.66097,-0.10912 -0.92047,-0.32721 -0.25479,-0.21825 -0.46448,-0.50662 -0.62961,-0.86596 -0.17929,-0.37859 -0.30692,-0.78627 -0.38243,-1.22261 -0.0755,-0.44276 -0.11316,-0.93336 -0.11316,-1.47236 0,-0.67374 0.05,-1.28699 0.14902,-1.83884 0.10377,-0.55823 0.24259,-1.01651 0.41716,-1.37582 0.184,-0.37217 0.39429,-0.65779 0.6302,-0.85672 0.24063,-0.19896 0.50213,-0.29828 0.78522,-0.29828 z m 7.54931,6.59295 c -0.26421,0 -0.493,0.13113 -0.68646,0.39424 -0.18873,0.25666 -0.28309,0.56498 -0.28309,0.92432 0,0.35934 0.0944,0.66712 0.28309,0.92378 0.19346,0.25025 0.42225,0.37574 0.68646,0.37574 0.26423,0 0.49057,-0.12546 0.67929,-0.37574 0.19346,-0.25666 0.29028,-0.56444 0.29028,-0.92378 0,-0.35934 -0.0968,-0.66766 -0.29028,-0.92432 -0.18872,-0.26307 -0.41506,-0.39424 -0.67929,-0.39424 z" />
      <ellipse
         style="opacity:1;fill:url(#radialGradient925);fill-opacity:1;fill-rule:evenodd;stroke:url(#radialGradient927);stroke-width:4.765;stroke-miterlimit:4;stroke-dasharray:none;stroke-opacity:0.335294"
         id="ellipse3327"
         ry="11.90625"
         rx="12.038542"
         cy="181.99895"
         cx="-26.216246"
         inkscape:transform-center-x="58.208333" />
    </g>
  </g>
</svg>
