<?xml version="1.0" encoding="UTF-8"?>
<svg width="150.19mm" height="60.86mm" version="1.1" viewBox="0 0 146.65 60.86" xmlns="http://www.w3.org/2000/svg" xmlns:cc="http://creativecommons.org/ns#" xmlns:dc="http://purl.org/dc/elements/1.1/" xmlns:rdf="http://www.w3.org/1999/02/22-rdf-syntax-ns#" xmlns:xlink="http://www.w3.org/1999/xlink">
 <defs>
  <radialGradient id="radialGradient2983" cx="738.72" cy="466.57" r="234.1" gradientTransform="matrix(-.79832 -.016693 .0017518 -.069435 544.04 249.48)" gradientUnits="userSpaceOnUse">
   <stop offset="0"/>
   <stop stop-opacity=".49804" offset=".5"/>
   <stop stop-opacity=".24706" offset=".75"/>
   <stop stop-opacity=".12157" offset=".875"/>
   <stop stop-opacity=".058824" offset=".98438"/>
   <stop stop-opacity=".027451" offset=".98438"/>
   <stop stop-opacity=".011765" offset=".98438"/>
   <stop stop-opacity=".0039216" offset=".99219"/>
   <stop stop-opacity="0" offset=".99609"/>
   <stop stop-opacity="0" offset=".99805"/>
   <stop stop-opacity="0" offset=".99902"/>
   <stop stop-opacity="0" offset=".99951"/>
   <stop stop-opacity="0" offset=".99976"/>
   <stop stop-opacity="0" offset=".99988"/>
   <stop stop-opacity="0" offset=".99994"/>
   <stop stop-opacity="0" offset=".99997"/>
   <stop stop-opacity="0" offset=".99998"/>
   <stop stop-opacity="0" offset=".99999"/>
   <stop stop-opacity="0" offset="1"/>
   <stop stop-opacity="0" offset="1"/>
  </radialGradient>
  <radialGradient id="radialGradient925" cx="121.18" cy="95.607" r="12.039" gradientTransform="matrix(-.3947 -.37459 3.6733 -3.8705 -326.53 593.86)" gradientUnits="userSpaceOnUse" xlink:href="#linearGradient3015"/>
  <linearGradient id="linearGradient3015">
   <stop offset="0"/>
   <stop stop-color="#15d6c3" offset="1"/>
  </linearGradient>
  <radialGradient id="radialGradient927" cx="-26.216" cy="182" r="15.071" gradientTransform="matrix(1 0 0 .99122 0 1.5976)" gradientUnits="userSpaceOnUse" xlink:href="#linearGradient3015"/>
 </defs>
 <metadata>
  <rdf:RDF>
   <cc:Work rdf:about="">
    <dc:format>image/svg+xml</dc:format>
    <dc:type rdf:resource="http://purl.org/dc/dcmitype/StillImage"/>
    <dc:title/>
   </cc:Work>
  </rdf:RDF>
 </metadata>
 <g transform="translate(-77.022 -80.364)">
  <text x="269.91541" y="80.363571" fill="#000000" font-family="sans-serif" font-size="10.583px" stroke-width=".26458" style="line-height:1.25" xml:space="preserve"><tspan x="269.91541" y="80.363571" stroke-width=".26458"> </tspan></text>
  <g transform="translate(178.88 -78.369)" fill-rule="evenodd">
   <path d="m37.611 198.88-2.8524 0.22142v0.59712c0.25952 0.0257 0.50063 0.0672 0.72238 0.12478 0.22648 0.0512 0.40535 0.13817 0.53745 0.26011 0.11793 0.11547 0.21041 0.28531 0.2765 0.50988 0.066 0.21826 0.0988 0.46233 0.0988 0.73182v3.3008c-0.22647-0.17333-0.4978-0.31408-0.81394-0.42316-0.3114-0.11548-0.62962-0.17333-0.95519-0.17333-0.43408 0-0.86144 0.12841-1.2814 0.385-0.41521 0.25666-0.76672 0.60021-1.0545 1.0301-0.3067 0.46199-0.54721 1.0009-0.72178 1.6169-0.17458 0.616-0.26155 1.2673-0.26155 1.9539 0 0.75075 0.0801 1.4373 0.2406 2.0597 0.16515 0.6224 0.38654 1.155 0.66493 1.5978 0.27365 0.43631 0.59434 0.77646 0.96235 1.0203 0.37275 0.23739 0.75756 0.35609 1.1539 0.35609 0.38218 0 0.7528-0.11866 1.1114-0.35609 0.36331-0.23742 0.66735-0.54234 0.9127-0.91452l0.0568 0.0182v0.88558l0.10597 0.13477 2.4346-0.21167v-0.62549c-0.14154-7e-3 -0.29695-0.0204-0.46682-0.0388-0.16985-0.0182-0.29995-0.0676-0.38961-0.14452-0.12264-0.10913-0.21699-0.24028-0.28309-0.39428-0.0613-0.1604-0.0916-0.35289-0.0916-0.5775v-12.801zm-74.731 5.4e-4 -2.6262 0.22075v0.61619c0.13682 0.0136 0.31875 0.0515 0.54522 0.11571 0.22648 0.0642 0.38189 0.13453 0.46682 0.21166 0.11792 0.11549 0.21228 0.27618 0.28309 0.48152 0.0755 0.19896 0.11373 0.41356 0.11373 0.64456v10.991c0 0.231-0.0333 0.42064-0.0994 0.56824-0.0661 0.14112-0.16535 0.24053-0.29745 0.29829-0.0802 0.0319-0.18135 0.0576-0.30403 0.0769-0.12267 0.0136-0.23861 0.0259-0.34712 0.0388v0.6353h3.4048l-6.1e-4 -0.6353c-0.12739-0.0136-0.24271-0.0356-0.34652-0.0676-0.0991-0.032-0.20084-0.0798-0.30463-0.14406-0.13678-0.0769-0.23547-0.18649-0.29685-0.32774-0.0613-0.14769-0.0922-0.33329-0.0922-0.55786v-13.023zm58.946 0-2.6262 0.22075v0.61619c0.13684 0.0136 0.31875 0.0515 0.54523 0.11571 0.22647 0.0642 0.38188 0.13453 0.46682 0.21166 0.11792 0.11549 0.21228 0.27618 0.28309 0.48152 0.0755 0.19896 0.11373 0.41356 0.11373 0.64456v10.991c0 0.231-0.0334 0.42064-0.0994 0.56824-0.0661 0.14112-0.16474 0.24053-0.29686 0.29829-0.0802 0.0319-0.18195 0.0576-0.30462 0.0769-0.12267 0.0136-0.23802 0.0259-0.34653 0.0388v0.6353h3.4042v-0.63548c-0.1274-0.0136-0.24332-0.0356-0.34712-0.0676-0.0991-0.032-0.20023-0.0798-0.30403-0.14405-0.13686-0.0769-0.23615-0.18649-0.29745-0.32774-0.0614-0.14769-0.0922-0.3333-0.0922-0.55786v-13.023zm-38.323 0.31739c-0.24063 0-0.45091 0.13114-0.6302 0.39425-0.17458 0.26308-0.26155 0.5714-0.26155 0.92432 0 0.33368 0.087 0.63178 0.26155 0.89487 0.17929 0.25668 0.38957 0.38499 0.6302 0.38499 0.2595 0 0.47658-0.13452 0.65116-0.40407 0.17929-0.27592 0.26872-0.59674 0.26872-0.96251 0-0.32723-0.0875-0.61283-0.26214-0.85668-0.16986-0.25026-0.38879-0.37517-0.65774-0.37517zm-37.682 0.61565c-0.40577 0-0.7955 0.0964-1.1682 0.28901-0.37275 0.18604-0.69589 0.44617-0.96955 0.77983-0.28782 0.35292-0.50922 0.7538-0.66492 1.203-0.15571 0.44916-0.23401 0.93352-0.23401 1.4533 0 0.90476 0.15601 1.6395 0.46742 2.2042 0.31612 0.55823 0.75706 1.0102 1.3233 1.3568 0.28782 0.17968 0.63007 0.37216 1.0264 0.5775 0.39634 0.19896 0.74785 0.3823 1.0545 0.54913 0.44824 0.24382 0.78557 0.6027 1.012 1.0776 0.22649 0.46842 0.33994 0.97547 0.33994 1.5209 0 0.37216-0.03817 0.70266-0.11371 0.9914-0.07074 0.28234-0.18117 0.52934-0.33216 0.7411-0.15098 0.21166-0.34954 0.37528-0.5949 0.49079-0.24063 0.11547-0.5237 0.17332-0.84926 0.17332-0.43408 0-0.81582-0.11252-1.1461-0.33701-0.32556-0.22461-0.61108-0.52612-0.85643-0.90469-0.2595-0.40424-0.46978-0.83749-0.63021-1.2995-0.1557-0.46842-0.2926-0.9914-0.41056-1.5689h-0.57334l0.09932 4.6778h0.56617l0.30402-0.70239c0.32556 0.2695 0.71284 0.50061 1.1611 0.69311 0.44824 0.18603 0.89656 0.27867 1.3448 0.27867 0.97197 0 1.786-0.39125 2.4418-1.1741 0.65585-0.78282 0.98332-1.7771 0.98332-2.9835 0-0.50692-0.05186-0.94981-0.15561-1.3284-0.09912-0.385-0.25449-0.73819-0.46682-1.059-0.19344-0.28235-0.42224-0.52935-0.68646-0.74109-0.25951-0.21168-0.53085-0.40086-0.81394-0.56768-0.31141-0.18603-0.63514-0.35929-0.97015-0.51969-0.33027-0.16675-0.66761-0.36275-1.012-0.58732-0.38691-0.25024-0.68169-0.56768-0.88457-0.95268-0.20288-0.3914-0.30403-0.88257-0.30403-1.4729 0-0.56466 0.15788-1.0422 0.474-1.4336 0.31613-0.39142 0.69846-0.58732 1.1467-0.58732 0.42464 0 0.78294 0.11253 1.0755 0.33702 0.29252 0.21824 0.54043 0.51343 0.74332 0.88558 0.20761 0.385 0.37534 0.81486 0.50273 1.2897 0.13211 0.47485 0.2499 0.97171 0.3537 1.4915h0.57335l-0.05685-4.5332h-0.56617l-0.29026 0.65439c-0.30196-0.25666-0.63683-0.48099-1.0049-0.6735-0.3633-0.19261-0.77588-0.289-1.2383-0.289zm-41.22 9e-3c-0.66528 0-1.2906 0.17311-1.8757 0.51969-0.58507 0.3465-1.092 0.83768-1.5214 1.4729-0.43408 0.64166-0.77388 1.4082-1.0192 2.3002-0.24535 0.88547-0.36807 1.8735-0.36807 2.9644 0 1.0908 0.12458 2.0726 0.37465 2.9453 0.25007 0.86623 0.58554 1.601 1.0055 2.2042 0.42464 0.60315 0.9106 1.0654 1.4579 1.3862 0.55204 0.32084 1.1274 0.48098 1.7266 0.48098 0.92478 0 1.7222-0.28848 2.3922-0.86596 0.66999-0.58391 1.2077-1.5532 1.6135-2.9071l-0.53086-0.34628c-0.11324 0.4235-0.2594 0.81473-0.43869 1.1741-0.1793 0.35932-0.38651 0.68016-0.62243 0.9625-0.23592 0.2695-0.51465 0.48754-0.83549 0.65435-0.32084 0.1604-0.67236 0.24106-1.0545 0.24106-0.50958 0-0.97209-0.1545-1.3873-0.46243-0.41049-0.308-0.76633-0.73445-1.0683-1.2799-0.30197-0.55183-0.53569-1.1901-0.70083-1.9152-0.16042-0.7315-0.24059-1.5338-0.24059-2.4065 0-0.98816 0.07772-1.8831 0.23341-2.6852 0.1557-0.80206 0.37031-1.463 0.64398-1.9828 0.28781-0.539 0.62761-0.94669 1.0192-1.2226 0.39633-0.27593 0.82369-0.41391 1.2814-0.41391 0.40105 0 0.75689 0.12546 1.0683 0.37572 0.3114 0.24384 0.58028 0.58397 0.80676 1.0203 0.20288 0.385 0.37987 0.85632 0.53086 1.4146 0.15098 0.55184 0.26444 1.0652 0.33994 1.54h0.58053l-0.06405-4.8703h-0.56617l-0.29027 0.65439c-0.36331-0.30158-0.74505-0.53555-1.1461-0.70237-0.40106-0.16675-0.84938-0.25031-1.3448-0.25031zm5.8927 0.29829v0.68329c0.13211 0.0136 0.29245 0.0452 0.48119 0.0964 0.18873 0.0449 0.34228 0.096 0.46024 0.15382 0.17457 0.0898 0.28558 0.22165 0.33276 0.39482 0.04718 0.17332 0.07062 0.372 0.07062 0.59658v9.8752c0 0.25025-0.03269 0.45579-0.09874 0.61621-0.06134 0.16039-0.16308 0.28191-0.30463 0.36537-0.08493 0.0512-0.23602 0.0933-0.45306 0.12546-0.21232 0.0322-0.37513 0.0543-0.48837 0.0671v0.68383h4.2469v-0.68383c-0.14627-7e-3 -0.32572-0.0286-0.53804-0.0671-0.21232-0.0383-0.36094-0.0806-0.44588-0.12546-0.16986-0.0898-0.28086-0.21824-0.33276-0.38499-0.0519-0.17333-0.07781-0.372-0.07781-0.59659v-4.331h1.0264c0.56619 0.98818 1.0898 1.9472 1.571 2.8777 0.48598 0.93039 1.0287 2.0343 1.6279 3.3112h2.7034v-0.68383c-0.12268-7e-3 -0.27622-0.0319-0.46024-0.0769-0.18401-0.0449-0.33696-0.10912-0.45964-0.19239-0.16514-0.11547-0.33287-0.26312-0.50273-0.44278-0.16514-0.18603-0.35138-0.47116-0.55899-0.85616-0.47654-0.87266-0.87986-1.6142-1.2101-2.2238-0.32556-0.60957-0.73627-1.3603-1.2317-2.2522 0.35859-0.14112 0.68666-0.31095 0.98392-0.50987 0.29725-0.20532 0.55195-0.4461 0.76427-0.72202 0.2312-0.29516 0.40572-0.64495 0.52368-1.0492 0.11796-0.40424 0.17715-0.8693 0.17715-1.3955 0-0.58392-0.08756-1.0813-0.26214-1.492-0.17458-0.41708-0.4077-0.75383-0.70023-1.0105-0.30197-0.26309-0.6399-0.45219-1.0126-0.56767-0.37274-0.12183-0.77113-0.18331-1.1958-0.18331zm11.109 0v0.68329c0.2076 0.0136 0.41788 0.061 0.63021 0.14451 0.21232 0.0835 0.39118 0.21167 0.53744 0.385 0.13212 0.1604 0.23386 0.36882 0.30463 0.62548 0.07077 0.25666 0.10594 0.58714 0.10594 0.9914v6.9877c0 0.87266-0.03023 1.495-0.09157 1.8672-0.06134 0.37216-0.1748 0.64815-0.33994 0.82781-0.12739 0.14111-0.30931 0.24735-0.54522 0.31791-0.2312 0.0705-0.4526 0.1182-0.66492 0.14407v0.68329h4.0554v-0.68329c-0.09908-7e-3 -0.31123-0.0705-0.63679-0.1924-0.32556-0.12182-0.54077-0.25023-0.64457-0.38499-0.15098-0.17969-0.26384-0.47441-0.33934-0.88507-0.07077-0.41066-0.10654-1.0109-0.10654-1.8001v-8.1525h0.09217l3.263 11.878h0.35371l3.4251-11.637h0.10654v9.9325c0 0.23742-0.03576 0.43673-0.10654 0.59713-0.06605 0.15404-0.17213 0.29198-0.3184 0.41389-0.09436 0.0705-0.26889 0.12501-0.52368 0.16358-0.25007 0.0386-0.45542 0.0608-0.61585 0.0671v0.68383h4.4378v-0.68383c-0.12739-7e-3 -0.29945-0.035-0.51649-0.0862-0.21704-0.0576-0.36813-0.11888-0.45306-0.18331-0.16042-0.11548-0.26896-0.2501-0.32558-0.4041-0.05662-0.15405-0.08498-0.3431-0.08498-0.56768v-9.8463c0-0.21167 0.02838-0.40764 0.08498-0.5873 0.05662-0.17968 0.16516-0.308 0.32558-0.385 0.09436-0.0449 0.24299-0.0933 0.44587-0.14452 0.2076-0.0515 0.3772-0.0803 0.50932-0.0867v-0.68328h-3.2767c-0.0048 0.11547-0.03988 0.34661-0.10594 0.69311-0.06135 0.34007-0.13718 0.66716-0.22683 0.98157l-2.4556 8.5664-2.8733-10.241zm-8.2567 0.77982h1.203c0.63697 0 1.1303 0.24361 1.4795 0.73127 0.34915 0.48124 0.52368 1.136 0.52368 1.9637 0 0.97532-0.21707 1.7487-0.65115 2.3198-0.43408 0.56466-0.97677 0.84688-1.6279 0.84688h-0.92706zm63.217 0.47169v2.9546h-1.288v0.92432h1.2598v6.4294c0 0.73147 0.11779 1.2993 0.35371 1.7036 0.24063 0.39781 0.65322 0.59657 1.2383 0.59657 0.39635 0 0.73181-0.0608 1.0055-0.18263 0.27366-0.11547 0.5635-0.25974 0.87019-0.43298v-0.70292c-0.0944 0.0449-0.25716 0.0835-0.48836 0.11571-0.22647 0.0257-0.39853 0.0388-0.5165 0.0388-0.25479 0-0.45769-0.0483-0.60866-0.14452-0.15097-0.0962-0.26443-0.23762-0.33994-0.4237-0.0802-0.19897-0.13205-0.43003-0.15561-0.69311-0.0189-0.26951-0.0282-0.60282-0.0282-1.0007v-5.3033h1.9888v-0.92431h-2.0031v-2.9546zm49.38 0v2.9546h-1.288v0.92432h1.2598v6.4294c0 0.73147 0.11779 1.2993 0.3537 1.7036 0.24063 0.39781 0.65321 0.59657 1.2383 0.59657 0.39634 0 0.73181-0.0608 1.0054-0.18263 0.27367-0.11547 0.56353-0.25974 0.87021-0.43298v-0.70292c-0.0944 0.0449-0.25717 0.0835-0.48837 0.11571-0.22647 0.0257-0.39852 0.0388-0.5165 0.0388-0.25479 0-0.45768-0.0483-0.60866-0.14452-0.15098-0.0962-0.26383-0.23762-0.33933-0.4237-0.0802-0.19897-0.13266-0.43003-0.15622-0.69311-0.0189-0.26951-0.0282-0.60282-0.0282-1.0007v-5.3033h1.9888v-0.92431h-2.0031v-2.9546zm-15.475 2.6372-0.1628 0.50059c-0.17929-0.13476-0.41243-0.25058-0.70022-0.34682-0.28311-0.0962-0.56184-0.14451-0.8355-0.14451-0.71245 0-1.281 0.26973-1.7057 0.80872-0.42465 0.539-0.6368 1.1966-0.6368 1.973 0 0.44273 0.0661 0.82773 0.1981 1.155 0.13211 0.32724 0.30172 0.6032 0.50931 0.82781 0.19346 0.21166 0.42471 0.39796 0.69364 0.55839 0.27368 0.15404 0.52158 0.27607 0.74333 0.36592 0.27838 0.11547 0.53062 0.23417 0.75709 0.3561 0.22648 0.11547 0.41764 0.24667 0.57335 0.39424 0.15096 0.1477 0.26443 0.32078 0.33994 0.5197 0.0802 0.19238 0.12029 0.42361 0.12029 0.69311 0 0.51974-0.12271 0.92064-0.36807 1.203-0.24534 0.27592-0.59438 0.4139-1.0473 0.4139-0.32085 0-0.6113-0.096-0.87081-0.28848-0.25479-0.19262-0.47371-0.42985-0.65773-0.7122-0.17457-0.2695-0.32319-0.571-0.44588-0.90468-0.12267-0.33366-0.20342-0.62553-0.24119-0.8758h-0.48837l0.0712 3.3014h0.53085l0.14124-0.62603c0.14628 0.16675 0.38924 0.3497 0.72897 0.5486 0.34443 0.19896 0.71938 0.29829 1.1252 0.29829 0.7691 0 1.3944-0.27882 1.8757-0.83707 0.48599-0.55823 0.72896-1.2771 0.72896-2.1562 0-0.43634-0.0518-0.80487-0.1556-1.1064-0.10378-0.30158-0.25244-0.56791-0.44588-0.79891-0.17929-0.21824-0.40808-0.41746-0.68646-0.59712-0.27366-0.17968-0.56598-0.33696-0.87738-0.4717-0.31613-0.14111-0.58314-0.2661-0.80019-0.37518-0.2123-0.11547-0.38871-0.23758-0.53025-0.36592-0.14625-0.13475-0.25725-0.29828-0.33276-0.49079-0.0708-0.19238-0.10655-0.4327-0.10655-0.72144 0-0.37216 0.11095-0.69014 0.33276-0.95323 0.22176-0.2631 0.52638-0.39428 0.91329-0.39428 0.47182 0 0.87022 0.21463 1.1958 0.64458 0.33028 0.42349 0.54488 0.97544 0.64397 1.6556h0.48838l-0.10598-3.0511zm-55.328 9e-3c-1.0286 0-1.8617 0.47186-2.4987 1.4151-0.63224 0.94324-0.94801 2.1562-0.94801 3.6384 0 0.76999 0.08943 1.4662 0.26872 2.0886 0.18402 0.616 0.42946 1.139 0.73614 1.5689 0.31141 0.43631 0.66725 0.76966 1.0683 1.0007 0.40105 0.22459 0.82348 0.33701 1.267 0.33701 0.53317 0 1.0148-0.125 1.4442-0.37519 0.42936-0.25025 0.80677-0.63239 1.1323-1.1457 0.28781-0.44915 0.5092-0.99428 0.66492-1.636 0.1557-0.64807 0.234-1.3056 0.234-1.973 0-1.4886-0.31882-2.6794-0.95578-3.5713-0.63225-0.89834-1.4364-1.3475-2.4131-1.3475zm35.693 0c-1.0286 0-1.8617 0.47186-2.4987 1.4151-0.63224 0.94324-0.94799 2.1562-0.94799 3.6384 0 0.76999 0.0894 1.4662 0.26872 2.0886 0.18401 0.616 0.42944 1.139 0.73613 1.5689 0.31139 0.43631 0.66785 0.76966 1.0689 1.0007 0.40105 0.22459 0.82288 0.33701 1.2664 0.33701 0.53316 0 1.0148-0.125 1.4441-0.37519 0.42936-0.25025 0.80679-0.63239 1.1323-1.1457 0.28783-0.44915 0.50922-0.99428 0.66492-1.636 0.15571-0.64807 0.23401-1.3056 0.23401-1.973 0-1.4886-0.31881-2.6794-0.95578-3.5713-0.63226-0.89834-1.4364-1.3475-2.4131-1.3475zm10.331 0.0113c-0.30197 0-0.57331 0.051-0.81395 0.15382-0.24062 0.10255-0.44845 0.231-0.62302 0.385-0.15098 0.13476-0.31132 0.31133-0.48119 0.52949-0.16985 0.21168-0.31108 0.39462-0.42432 0.5486h-0.0354v-1.3382l-0.0994-0.13477-2.3215 0.21214v0.6255c0.14154 0.0136 0.27352 0.0383 0.3962 0.0769 0.12266 0.0319 0.22933 0.0866 0.31899 0.16358 0.12272 0.11548 0.21707 0.26653 0.28309 0.45261 0.0707 0.17968 0.10596 0.37842 0.10596 0.59657v5.8616c0 0.23102-0.0333 0.42012-0.0993 0.5677-0.0614 0.14112-0.15755 0.24053-0.28966 0.29829-0.0849 0.0386-0.18668 0.064-0.30462 0.0769-0.11327 0.0136-0.22424 0.0259-0.33277 0.0386v0.63531h3.4186v-0.63531c-0.12267-0.0136-0.24293-0.0354-0.3609-0.0676-0.11327-0.032-0.2193-0.0803-0.31838-0.14452-0.13207-0.0769-0.23136-0.18603-0.29746-0.32719-0.0662-0.14111-0.0994-0.32061-0.0994-0.53877v-5.4576c0.0425-0.10255 0.10909-0.23726 0.1987-0.40408 0.0944-0.17333 0.21894-0.33341 0.37466-0.48098 0.1604-0.15405 0.34479-0.28232 0.5524-0.38498 0.2076-0.10913 0.43639-0.16357 0.68646-0.16357 0.335 0 0.61806 0.18285 0.84926 0.54859 0.2359 0.36575 0.35371 0.88533 0.35371 1.5591v4.8795c0 0.23102-0.0328 0.42064-0.0988 0.56822-0.0614 0.14111-0.15815 0.24055-0.29028 0.29831-0.0849 0.0386-0.19345 0.064-0.32557 0.0769-0.12739 0.0136-0.24519 0.0259-0.35369 0.0388v0.6353h3.418v-0.6353c-0.14627-0.0136-0.2616-0.0322-0.34653-0.0578-0.0802-0.0257-0.17704-0.0703-0.29027-0.13477-0.13685-0.0769-0.23367-0.18263-0.29026-0.31737-0.0566-0.14111-0.085-0.32402-0.085-0.54859v-4.9379c0-0.94324-0.16282-1.6973-0.48836-2.262-0.32085-0.57108-0.81605-0.85617-1.486-0.85617zm-32.971 0.14407-2.3281 0.23122v0.62548c0.14154 0.0136 0.27598 0.0383 0.40337 0.0769 0.12739 0.032 0.23347 0.0867 0.31839 0.16358 0.12264 0.11547 0.21452 0.25347 0.2759 0.4139 0.0661 0.15404 0.0994 0.3465 0.0994 0.5775v4.543c0 1.0459 0.16034 1.8449 0.48118 2.3967 0.32557 0.54543 0.79733 0.81797 1.4154 0.81797 0.36331 0 0.64391-0.0449 0.84208-0.13476 0.19816-0.0898 0.40352-0.22165 0.61583-0.3948 0.18403-0.14769 0.34682-0.31112 0.48838-0.49078 0.14154-0.18604 0.2692-0.35927 0.38243-0.5197h0.0425v1.203l0.10597 0.13476 2.2719-0.21166v-0.62548c-0.14156-7e-3 -0.27107-0.0204-0.38903-0.0388-0.11795-0.0257-0.21971-0.074-0.30463-0.14452-0.11791-0.10912-0.20981-0.24028-0.27589-0.39428-0.0662-0.15404-0.0993-0.34021-0.0993-0.5584v-7.5363l-0.10598-0.13476-2.534 0.23123v0.62548c0.20762 0.0136 0.39444 0.0288 0.55958 0.0481 0.16986 0.0137 0.29691 0.0576 0.38185 0.13476 0.1179 0.11548 0.20981 0.25689 0.2759 0.42373 0.0662 0.16039 0.0993 0.34665 0.0993 0.55839v5.3801c-0.0519 0.12841-0.12714 0.26916-0.22623 0.42316-0.0944 0.1477-0.20538 0.28899-0.33276 0.42373-0.13682 0.14769-0.30702 0.27589-0.50991 0.385-0.20288 0.10912-0.43414 0.16357-0.69365 0.16357-0.31613 0-0.58746-0.1731-0.81394-0.5197-0.22648-0.34649-0.33935-0.86324-0.33935-1.5498v-6.5929zm15.99 0-2.4628 0.21166v0.62603c0.14154 0.0136 0.29695 0.0481 0.46682 0.10572 0.16985 0.0512 0.29936 0.11547 0.38902 0.19238 0.12265 0.11549 0.21759 0.25973 0.28368 0.43299 0.0707 0.16675 0.10596 0.35305 0.10596 0.55839v5.8611c0 0.23102-0.0333 0.42064-0.0993 0.56824-0.0614 0.14112-0.15814 0.24053-0.29026 0.29829-0.0849 0.0386-0.18608 0.064-0.30403 0.0769-0.11327 0.0136-0.22423 0.0259-0.33276 0.0386v0.63531h3.3761v-0.63531c-0.12269-0.0136-0.23368-0.0354-0.33277-0.0676-0.099-0.0386-0.20023-0.0862-0.30403-0.14406-0.13687-0.0705-0.23861-0.18014-0.30462-0.32774-0.0613-0.14746-0.0916-0.33327-0.0916-0.55785v-7.7387zm-29.057 0.57749c0.35386 0 0.65358 0.12161 0.89893 0.36537 0.24535 0.2374 0.44331 0.55539 0.59429 0.95322 0.14155 0.37217 0.24762 0.82759 0.31839 1.3666 0.0707 0.53258 0.10654 1.0396 0.10654 1.5209 0 1.3667-0.17206 2.4382-0.5165 3.2147-0.34443 0.77642-0.81187 1.1648-1.4017 1.1648-0.35859 0-0.66076-0.11593-0.90611-0.34681-0.24063-0.23742-0.44106-0.5611-0.60148-0.97176-0.16043-0.41065-0.27822-0.87628-0.35371-1.396-0.07074-0.52616-0.10593-1.0969-0.10593-1.7128 0-0.46841 0.03028-0.95332 0.09153-1.4538 0.06135-0.5005 0.16741-0.94628 0.31839-1.3377 0.16043-0.4235 0.36824-0.75738 0.62303-1.0012 0.2595-0.24383 0.57094-0.36537 0.93424-0.36537zm35.693 0c0.35388 0 0.65357 0.12161 0.89893 0.36537 0.24535 0.2374 0.44331 0.55539 0.5943 0.95322 0.14151 0.37217 0.24759 0.82759 0.3184 1.3666 0.0707 0.53258 0.10654 1.0396 0.10654 1.5209 0 1.3667-0.17265 2.4382-0.51708 3.2147-0.34444 0.77642-0.81127 1.1648-1.4011 1.1648-0.35859 0-0.66076-0.11593-0.90611-0.34681-0.24063-0.23742-0.44105-0.5611-0.60148-0.97176-0.1604-0.41065-0.27818-0.87628-0.35371-1.396-0.0707-0.52616-0.10655-1.0969-0.10655-1.7128 0-0.46841 0.0308-0.95332 0.0922-1.4538 0.0613-0.5005 0.16741-0.94628 0.3184-1.3377 0.16041-0.4235 0.36823-0.75738 0.62302-1.0012 0.2595-0.24383 0.57093-0.36537 0.93424-0.36537zm43.947 9e-3c0.24535 0 0.45995 0.0545 0.64396 0.16357 0.18401 0.10278 0.34495 0.23386 0.48179 0.39427 0.1274 0.1604 0.23346 0.337 0.31839 0.52951 0.0849 0.19238 0.14598 0.37195 0.18373 0.53878v5.5535c-0.16985 0.2695-0.37953 0.51652-0.6296 0.74109-0.24536 0.22461-0.55677 0.33702-0.93424 0.33702-0.35387 0-0.66097-0.10912-0.92047-0.32721-0.25479-0.21825-0.46448-0.50662-0.62961-0.86596-0.17929-0.37859-0.30692-0.78627-0.38243-1.2226-0.0755-0.44276-0.11316-0.93336-0.11316-1.4724 0-0.67374 0.05-1.287 0.14902-1.8388 0.10377-0.55823 0.24259-1.0165 0.41716-1.3758 0.184-0.37217 0.39429-0.65779 0.6302-0.85672 0.24063-0.19896 0.50213-0.29828 0.78522-0.29828zm7.5493 6.593c-0.26421 0-0.493 0.13113-0.68646 0.39424-0.18873 0.25666-0.28309 0.56498-0.28309 0.92432s0.0944 0.66712 0.28309 0.92378c0.19346 0.25025 0.42225 0.37574 0.68646 0.37574 0.26423 0 0.49057-0.12546 0.67929-0.37574 0.19346-0.25666 0.29028-0.56444 0.29028-0.92378s-0.0968-0.66766-0.29028-0.92432c-0.18872-0.26307-0.41506-0.39424-0.67929-0.39424z" fill="url(#radialGradient2983)" stroke="#000" stroke-width=".4" style="font-variant-caps:normal;font-variant-east-asian:normal;font-variant-ligatures:normal;font-variant-numeric:normal;mix-blend-mode:soft-light"/>
   <ellipse cx="-26.216" cy="182" rx="12.039" ry="11.906" fill="url(#radialGradient925)" stroke="url(#radialGradient927)" stroke-opacity=".33529" stroke-width="4.765"/>
  </g>
 </g>
</svg>
